<svg xmlns="http://www.w3.org/2000/svg" viewBox="0 0 280 160" width="280" height="160">
  <rect width="280" height="160" rx="12" fill="#1E3A8A"/>
  <g fill="#ffffff" opacity="0.95">
    <rect x="40" y="50" width="50" height="70" rx="4"/>
    <rect x="100" y="35" width="50" height="85" rx="4"/>
    <rect x="160" y="60" width="50" height="60" rx="4"/>
  </g>
  <g fill="#6B21A8">
    <rect x="48" y="60" width="12" height="12" rx="2"/>
    <rect x="68" y="60" width="12" height="12" rx="2"/>
    <rect x="108" y="48" width="12" height="12" rx="2"/>
    <rect x="128" y="48" width="12" height="12" rx="2"/>
    <rect x="108" y="68" width="12" height="12" rx="2"/>
    <rect x="128" y="68" width="12" height="12" rx="2"/>
    <rect x="168" y="72" width="12" height="12" rx="2"/>
    <rect x="188" y="72" width="12" height="12" rx="2"/>
  </g>
  <polygon points="210,30 230,18 250,30 250,40 210,40" fill="#fbbf24"/>
  <text x="140" y="142" text-anchor="middle" fill="white" font-family="Segoe UI, sans-serif" font-size="13" font-weight="600">Polo educativo de Laboulaye</text>
</svg>
